<svg width="17" height="16" viewBox="0 0 17 16" fill="none" xmlns="http://www.w3.org/2000/svg">
<g id="circle" clip-path="url(#clip0_4342_106)">
<path id="Vector" fill-rule="evenodd" clip-rule="evenodd" d="M8.33337 15.0033C10.1899 15.0033 11.9704 14.2658 13.2831 12.953C14.5959 11.6403 15.3334 9.85981 15.3334 8.0033C15.3334 6.14678 14.5959 4.3663 13.2831 3.05355C11.9704 1.74079 10.1899 1.0033 8.33337 1.0033C6.47686 1.0033 4.69638 1.74079 3.38363 3.05355C2.07087 4.3663 1.33337 6.14678 1.33337 8.0033C1.33337 9.85981 2.07087 11.6403 3.38363 12.953C4.69638 14.2658 6.47686 15.0033 8.33337 15.0033ZM8.33337 16.0033C10.4551 16.0033 12.4899 15.1604 13.9902 13.6602C15.4905 12.1599 16.3334 10.125 16.3334 8.0033C16.3334 5.88156 15.4905 3.84673 13.9902 2.34644C12.4899 0.846151 10.4551 0.0032959 8.33337 0.0032959C6.21164 0.0032959 4.17681 0.846151 2.67652 2.34644C1.17623 3.84673 0.333374 5.88156 0.333374 8.0033C0.333374 10.125 1.17623 12.1599 2.67652 13.6602C4.17681 15.1604 6.21164 16.0033 8.33337 16.0033Z" fill="#3D0A91"/>
</g>
<defs>
<clipPath id="clip0_4342_106">
<rect width="16" height="16" fill="white" transform="translate(0.333374 0.0032959)"/>
</clipPath>
</defs>
</svg>
