<svg width="100" height="45" viewBox="0 0 100 45" fill="none" xmlns="http://www.w3.org/2000/svg">
<g id="Logos">
<path id="Vector" d="M35.6271 13.5033C39.4646 13.5033 42.5329 14.4629 44.8808 16.5962C46.4842 18.0483 47.3804 20.1187 47.3554 22.29C47.3494 23.3608 47.127 24.4193 46.7018 25.4021C46.2766 26.3849 45.6572 27.2716 44.8808 28.0091C42.6842 30.0291 39.2629 31.102 35.6267 31.102C31.9913 31.102 28.6329 30.0291 26.3983 28.0091C24.77 26.557 23.8608 24.4741 23.8858 22.29C23.8858 20.1316 24.795 18.0608 26.3983 16.5962C28.4817 14.7025 32.1679 13.5033 35.6271 13.5033ZM35.6396 28.7916C37.5588 28.7916 39.3388 28.1225 40.5888 26.8854C41.8383 25.6358 42.3938 24.1333 42.3938 22.29C42.3938 20.5225 41.7754 18.8691 40.5883 17.6945C39.3642 16.4829 37.5333 15.8008 35.6396 15.8008C33.7458 15.8008 31.9154 16.4829 30.6783 17.6945C29.4917 18.8687 28.8729 20.5225 28.8729 22.2904C28.8479 23.9945 29.4917 25.6487 30.6783 26.8858C31.9154 28.1104 33.7333 28.7916 35.6396 28.7916ZM15.4654 20.5979C16.1342 20.7745 16.7779 20.9895 17.4096 21.2795C17.9928 21.545 18.5264 21.908 18.9875 22.3529C19.8083 23.2112 20.275 24.36 20.2625 25.5466C20.2707 26.1731 20.1323 26.7928 19.8583 27.3562C19.5843 27.9197 19.1824 28.4112 18.6846 28.7916C17.8024 29.4612 16.7994 29.9542 15.7304 30.2437C14.1218 30.7481 12.4417 30.9869 10.7563 30.9508C9.2896 30.9508 8.47834 30.7816 7.36543 30.55L7.0446 30.4833C5.8196 30.2058 4.62085 29.827 3.47168 29.322C3.41982 29.2865 3.35781 29.2688 3.29501 29.2716C3.10585 29.2716 2.95418 29.4358 2.95418 29.625V30.4708H0.505014V24.31H2.68918C2.70174 24.934 2.89941 25.5402 3.2571 26.0516C4.14085 27.1379 5.08793 27.5545 5.99668 27.8829C7.52418 28.3879 9.12751 28.6529 10.7308 28.7033C13.0333 28.7033 14.3792 28.145 14.6704 28.0241L14.7079 28.0087L14.7338 27.9991C14.9904 27.905 16.0333 27.5229 16.0333 26.3675C16.0333 25.2245 15.0592 24.9758 14.4208 24.8133L14.3292 24.7891C13.6175 24.5975 11.9875 24.4258 10.2054 24.2379L9.5696 24.1712C7.5496 23.9566 5.5296 23.6408 4.58293 23.4387C2.50918 22.9816 1.69043 22.2233 1.18293 21.7533L1.14876 21.7216C0.408195 20.9318 -0.00272344 19.8889 1.35855e-05 18.8062C1.35855e-05 16.7354 1.41418 15.4854 3.15626 14.7158C5.0121 13.8825 7.22126 13.5158 9.15293 13.5158C12.5742 13.5287 15.3517 14.6395 16.3488 15.1575C16.7529 15.372 16.955 15.107 16.955 14.905V14.2866H19.1517V19.6516H17.1821C17.0057 18.8554 16.576 18.1378 15.9575 17.6062C15.5804 17.3034 15.1642 17.053 14.72 16.8616C13.0667 16.167 11.2992 15.8137 9.50626 15.8387C7.66335 15.8387 5.89585 16.1929 5.0121 16.7358C4.45668 17.0766 4.17876 17.5058 4.17876 18.0108C4.17876 18.7304 4.7846 19.0208 5.08793 19.1091C5.90751 19.3579 7.7246 19.5383 9.13793 19.6795C9.4446 19.71 9.7321 19.7387 9.98626 19.7654C11.3496 19.9045 14.2029 20.2825 15.4654 20.5979ZM91.1625 16.4454V14.4508H100V16.4075H98.0179C97.2983 16.4075 97.0079 16.5466 96.465 17.1525L90.5188 23.9441C90.4574 24.0279 90.4303 24.1319 90.4429 24.235V27.3279C90.453 27.4716 90.4698 27.6149 90.4933 27.757C90.5282 27.8484 90.5841 27.9304 90.6565 27.9962C90.7289 28.062 90.8157 28.1098 90.91 28.1358C91.0899 28.1609 91.2713 28.1734 91.4529 28.1733H93.4729V30.1308H82.7546V28.1737H84.6738C84.8552 28.1737 85.0365 28.1611 85.2163 28.1358C85.3112 28.1078 85.3989 28.0593 85.4731 27.9938C85.5473 27.9283 85.6063 27.8474 85.6458 27.7566C85.6707 27.6191 85.6833 27.4797 85.6833 27.34V24.2475C85.6833 24.1466 85.6833 24.1466 85.5446 23.9825C83.5875 21.7529 81.6266 19.5268 79.6617 17.3041C79.3458 16.9758 78.8029 16.4454 77.97 16.4454H76.0633V14.4887H86.845V16.4454H85.5446C85.2542 16.4454 85.0521 16.7358 85.3046 17.0516C85.3046 17.0516 88.9279 21.3816 88.9658 21.432C89.0038 21.4829 89.0292 21.4829 89.0796 21.4445C89.13 21.407 92.8037 17.0891 92.8292 17.0516C92.8892 16.9711 92.9148 16.8702 92.9006 16.7708C92.8864 16.6714 92.8335 16.5817 92.7533 16.5212C92.6785 16.4716 92.5906 16.4453 92.5008 16.4454H91.1625ZM64.9792 16.4325H66.9992C67.9208 16.4325 68.085 16.7858 68.0975 17.6445L68.2113 24.1712L57.455 14.4879H49.7667V16.445H51.4833C52.7208 16.445 52.8092 17.1266 52.8092 17.7325V26.9566C52.8108 27.492 52.8129 28.1858 52.0517 28.1858H49.9433V30.1304H58.9575V28.1733H56.7604C55.8771 28.1733 55.8392 27.7691 55.8263 26.9108V19.0708L68.2113 30.117H71.3675L71.2033 17.6312C71.2158 16.7229 71.2792 16.4195 72.2133 16.4195H74.1825V14.4625H64.9792V16.4325Z" fill="#520DC2"/>
</g>
</svg>
