<svg width="100" height="45" viewBox="0 0 100 45" fill="none" xmlns="http://www.w3.org/2000/svg">
<g clip-path="url(#clip0_4478_1209)">
<path d="M99.6562 21.5498V19.7904H97.4718V17.056L97.3984 17.0794L95.3476 17.7044H95.3085V19.7747H92.071V18.6185C92.071 18.0873 92.196 17.6732 92.4304 17.3997C92.6648 17.1263 93.0085 16.9896 93.4304 16.9896C93.7429 16.9896 94.071 17.0677 94.3835 17.2083L94.4617 17.2396V15.3951L94.4304 15.3794C94.1335 15.274 93.7273 15.2193 93.2273 15.2193C92.5945 15.2193 92.0164 15.3599 91.5085 15.6365C91.0007 15.9021 90.6023 16.3005 90.3289 16.8005C90.0476 17.3005 89.907 17.8787 89.907 18.5115V19.7771H88.3914V21.5349H89.9148V28.9412H92.0945V21.5349H95.3343V26.238C95.3343 28.1755 96.2453 29.1599 98.0531 29.1599C98.35 29.1599 98.6625 29.1224 98.975 29.0583C99.2992 28.988 99.5218 28.9177 99.6468 28.8474L99.6781 28.8318V27.0583L99.5898 27.1177C99.4726 27.1958 99.3242 27.2638 99.1523 27.3107C98.9804 27.3576 98.832 27.3888 98.721 27.3888C98.2992 27.3888 97.9867 27.2794 97.7945 27.0552C97.596 26.8326 97.4976 26.438 97.4976 25.8833V21.5552H99.6695L99.6648 21.5443L99.6562 21.5498ZM83.4921 27.3935C82.7007 27.3935 82.0757 27.1302 81.6328 26.6122C81.1929 26.0927 80.9687 25.3513 80.9687 24.4091C80.9687 23.4372 81.1929 22.6748 81.6351 22.1466C82.0757 21.6216 82.6945 21.3544 83.4757 21.3544C84.2335 21.3544 84.8273 21.6091 85.2648 22.1123C85.7023 22.6185 85.921 23.3732 85.921 24.356C85.921 25.3513 85.7179 26.1162 85.3117 26.6271C84.9054 27.1349 84.296 27.3927 83.4992 27.3927M83.5929 19.5701C82.0851 19.5701 80.8835 20.0122 80.0273 20.8857C79.1757 21.7607 78.7398 22.9685 78.7398 24.4794C78.7398 25.9169 79.1617 27.0693 79.9999 27.9091C80.8359 28.7529 81.9742 29.1904 83.3804 29.1904C84.8429 29.1904 86.021 28.7372 86.8742 27.8583C87.7335 26.974 88.1601 25.7755 88.1601 24.3013C88.1601 22.8435 87.7539 21.6794 86.9492 20.8482C86.1445 20.0091 85.0164 19.5857 83.5898 19.5857M75.2148 19.5857C74.1835 19.5857 73.3367 19.8482 72.6835 20.3669C72.0335 20.8888 71.6992 21.5701 71.6992 22.3982C71.6992 22.831 71.7726 23.2107 71.9148 23.5388C72.0554 23.8622 72.2742 24.1482 72.5664 24.3888C72.8554 24.6232 73.3007 24.8732 73.8945 25.1294C74.3945 25.3326 74.7617 25.5044 74.9992 25.6451C75.2335 25.7755 75.3992 25.9107 75.4835 26.0412C75.5773 26.1662 75.6242 26.3458 75.6242 26.5568C75.6242 27.1771 75.1648 27.4755 74.2179 27.4755C73.8648 27.4755 73.4632 27.4021 73.0242 27.2568C72.5812 27.113 72.1703 26.9052 71.7999 26.638L71.7062 26.5755V28.6693L71.7375 28.6849C72.05 28.8255 72.4351 28.9505 72.8937 29.0443C73.3507 29.1458 73.7687 29.1927 74.1281 29.1927C75.2453 29.1927 76.1437 28.9271 76.7999 28.4083C77.4562 27.8833 77.7921 27.1818 77.7921 26.3271C77.7921 25.7099 77.6124 25.1787 77.257 24.7529C76.9054 24.3263 76.296 23.9373 75.4421 23.5935C74.7679 23.3201 74.3328 23.0935 74.1453 22.9216C73.9734 22.7529 73.8929 22.5154 73.8929 22.2154C73.8929 21.9498 74.0023 21.7357 74.225 21.5638C74.4484 21.388 74.7609 21.3005 75.1515 21.3005C75.5148 21.3005 75.8859 21.3552 76.2609 21.4685C76.6281 21.5841 76.9523 21.7341 77.2218 21.9185L77.3132 21.981V19.981L77.282 19.9654C77.0281 19.856 76.6984 19.7646 76.2976 19.6919C75.8992 19.6162 75.5375 19.5826 75.2234 19.5826M66.0046 27.4029C65.2156 27.4029 64.5906 27.1419 64.1531 26.6216C63.7078 26.106 63.4851 25.3638 63.4851 24.4185C63.4851 23.4497 63.7085 22.6841 64.1523 22.1583C64.5898 21.6333 65.2101 21.3662 65.9882 21.3662C66.746 21.3662 67.3476 21.6208 67.7812 22.124C68.2124 22.6318 68.4374 23.3865 68.4374 24.3693C68.4374 25.363 68.2265 26.1271 67.8203 26.6388C67.4218 27.1466 66.8125 27.4044 66.0078 27.4044M66.1171 19.5841C64.6015 19.5841 63.3984 20.0248 62.5468 20.8982C61.6898 21.7732 61.2578 22.9802 61.2578 24.4919C61.2578 25.9294 61.6796 27.081 62.5101 27.9216C63.3476 28.7654 64.4835 29.2029 65.889 29.2029C67.3578 29.2029 68.5296 28.7497 69.389 27.8669C70.2437 26.981 70.6781 25.7826 70.6781 24.3083C70.6781 22.8498 70.2718 21.6857 69.4749 20.8552C68.6703 20.0154 67.5406 19.5919 66.1156 19.5919M57.9609 21.3951V19.8013H55.8046V28.9654H57.9609V24.2779C57.9609 23.481 58.1406 22.8247 58.4976 22.3287C58.8492 21.8349 59.3179 21.5943 59.8882 21.5943C60.0835 21.5943 60.3023 21.6255 60.5429 21.688C60.7773 21.7505 60.946 21.813 61.0429 21.8912L61.1367 21.9537V19.7818L61.1023 19.7662C60.8992 19.6755 60.6179 19.6318 60.2585 19.6318C59.7195 19.6318 59.2351 19.8068 58.8195 20.1474C58.4523 20.4505 58.189 20.863 57.9874 21.3787H57.9484L57.9679 21.3943L57.9609 21.3951ZM51.9296 19.5826C50.9374 19.5826 50.0546 19.7896 49.3046 20.2076C48.5484 20.6294 47.9687 21.2232 47.5703 21.9888C47.1796 22.7466 46.9765 23.6333 46.9765 24.6216C46.9765 25.4888 47.1734 26.281 47.5546 26.9826C47.9406 27.6857 48.4843 28.2326 49.1718 28.6154C49.8546 28.9927 50.6484 29.1857 51.5265 29.1857C52.5515 29.1857 53.425 28.9826 54.1281 28.5763L54.1593 28.5607V26.5826L54.0656 26.6474C53.7476 26.8818 53.3937 27.0654 53.0109 27.1982C52.6296 27.331 52.2828 27.3982 51.9796 27.3982C51.1312 27.3982 50.4531 27.1326 49.9593 26.613C49.4593 26.0818 49.2093 25.3474 49.2093 24.4255C49.2093 23.488 49.4749 22.738 49.9874 22.1912C50.5031 21.6287 51.1812 21.3474 52.0109 21.3474C52.714 21.3474 53.407 21.5896 54.0601 22.0583L54.1539 22.1208V20.0427L54.1281 20.0271C53.882 19.8865 53.5476 19.7771 53.1281 19.688C52.7171 19.6021 52.3125 19.5599 51.9265 19.5599M45.4968 19.7787H43.3437V28.9505H45.5V19.7787H45.4968ZM44.4343 15.8802C44.0796 15.8802 43.7703 16.0005 43.5156 16.2396C43.2609 16.4802 43.1312 16.7818 43.1312 17.138C43.1312 17.4896 43.2617 17.7865 43.514 18.0208C43.764 18.2552 44.0765 18.3708 44.4359 18.3708C44.7953 18.3708 45.1078 18.2537 45.3617 18.0193C45.6179 17.7849 45.7476 17.488 45.7476 17.1365C45.7476 16.7927 45.6226 16.4958 45.3726 16.2458C45.1226 16.0115 44.8101 15.8865 44.4351 15.8865M39.0523 19.113V28.9568H41.2554V16.1763H38.2085L34.3468 25.6747L30.589 16.1747H27.4218V28.9654H29.4921V19.1255H29.5625L33.5312 28.9677H35.0898L38.996 19.1263H39.0703L39.0585 19.1216L39.0523 19.113ZM10.8726 23.0896H21.0132V33.2388H10.857L10.871 23.0966L10.8726 23.0896ZM-0.328174 23.0958H9.81089V33.2388H-0.331299L-0.328174 23.0958ZM10.8734 11.8951H21.014V22.0357H10.8671L10.8734 11.8919V11.8951ZM-0.328174 11.8935H9.81089V22.0357H-0.331299L-0.328174 11.8919V11.8935Z" fill="#E0CFFC"/>
</g>
<defs>
<clipPath id="clip0_4478_1209">
<rect width="100" height="45" fill="white"/>
</clipPath>
</defs>
</svg>
