<svg xmlns="http://www.w3.org/2000/svg" width="100" height="45" viewBox="0 0 100 45" fill="none">
  <g clip-path="url(#clip0_6_4163)">
    <path d="M99.6562 21.553V19.7937H97.4718V17.0593L97.3984 17.0827L95.3476 17.7077H95.3085V19.778H92.071V18.6218C92.071 18.0905 92.196 17.6765 92.4304 17.403C92.6648 17.1296 93.0085 16.9929 93.4304 16.9929C93.7429 16.9929 94.071 17.071 94.3835 17.2116L94.4617 17.2429V15.3984L94.4304 15.3827C94.1335 15.2773 93.7273 15.2226 93.2273 15.2226C92.5945 15.2226 92.0164 15.3632 91.5085 15.6398C91.0007 15.9054 90.6023 16.3038 90.3289 16.8038C90.0476 17.3038 89.907 17.882 89.907 18.5148V19.7804H88.3913V21.5382H89.9148V28.9445H92.0945V21.5382H95.3343V26.2413C95.3343 28.1788 96.2453 29.1632 98.0531 29.1632C98.35 29.1632 98.6625 29.1257 98.975 29.0616C99.2992 28.9913 99.5218 28.921 99.6468 28.8507L99.6781 28.8351V27.0616L99.5898 27.121C99.4726 27.1991 99.3242 27.2671 99.1523 27.314C98.9804 27.3609 98.832 27.3921 98.721 27.3921C98.2992 27.3921 97.9867 27.2827 97.7945 27.0585C97.596 26.8359 97.4976 26.4413 97.4976 25.8866V21.5585H99.6695L99.6648 21.5476L99.6562 21.553ZM83.4921 27.3968C82.7007 27.3968 82.0757 27.1335 81.6328 26.6155C81.1929 26.096 80.9687 25.3546 80.9687 24.4124C80.9687 23.4405 81.1929 22.678 81.6351 22.1499C82.0757 21.6249 82.6945 21.3577 83.4757 21.3577C84.2335 21.3577 84.8273 21.6124 85.2648 22.1155C85.7023 22.6218 85.921 23.3765 85.921 24.3593C85.921 25.3546 85.7179 26.1195 85.3117 26.6304C84.9054 27.1382 84.296 27.396 83.4992 27.396M83.5929 19.5734C82.0851 19.5734 80.8835 20.0155 80.0273 20.889C79.1757 21.764 78.7398 22.9718 78.7398 24.4827C78.7398 25.9202 79.1617 27.0726 79.9999 27.9124C80.8359 28.7562 81.9742 29.1937 83.3804 29.1937C84.8429 29.1937 86.021 28.7405 86.8742 27.8616C87.7335 26.9773 88.1601 25.7788 88.1601 24.3046C88.1601 22.8468 87.7539 21.6827 86.9492 20.8515C86.1445 20.0124 85.0164 19.589 83.5898 19.589M75.2148 19.589C74.1835 19.589 73.3367 19.8515 72.6835 20.3702C72.0335 20.8921 71.6992 21.5734 71.6992 22.4015C71.6992 22.8343 71.7726 23.214 71.9148 23.5421C72.0554 23.8655 72.2742 24.1515 72.5664 24.3921C72.8554 24.6265 73.3007 24.8765 73.8945 25.1327C74.3945 25.3359 74.7617 25.5077 74.9992 25.6484C75.2335 25.7788 75.3992 25.914 75.4835 26.0445C75.5773 26.1695 75.6242 26.3491 75.6242 26.5601C75.6242 27.1804 75.1648 27.4788 74.2179 27.4788C73.8648 27.4788 73.4632 27.4054 73.0242 27.2601C72.5812 27.1163 72.1703 26.9085 71.7999 26.6413L71.7062 26.5788V28.6726L71.7374 28.6882C72.0499 28.8288 72.4351 28.9538 72.8937 29.0476C73.3507 29.1491 73.7687 29.196 74.1281 29.196C75.2453 29.196 76.1437 28.9304 76.7999 28.4116C77.4562 27.8866 77.7921 27.1851 77.7921 26.3304C77.7921 25.7132 77.6124 25.182 77.257 24.7562C76.9054 24.3296 76.296 23.9405 75.4421 23.5968C74.7679 23.3234 74.3328 23.0968 74.1453 22.9249C73.9734 22.7562 73.8929 22.5187 73.8929 22.2187C73.8929 21.953 74.0023 21.739 74.225 21.5671C74.4484 21.3913 74.7609 21.3038 75.1515 21.3038C75.5148 21.3038 75.8859 21.3585 76.2609 21.4718C76.6281 21.5874 76.9523 21.7374 77.2218 21.9218L77.3132 21.9843V19.9843L77.282 19.9687C77.0281 19.8593 76.6984 19.7679 76.2976 19.6952C75.8992 19.6195 75.5375 19.5859 75.2234 19.5859M66.0046 27.4062C65.2156 27.4062 64.5906 27.1452 64.1531 26.6249C63.7078 26.1093 63.4851 25.3671 63.4851 24.4218C63.4851 23.453 63.7085 22.6874 64.1523 22.1616C64.5898 21.6366 65.2101 21.3695 65.9882 21.3695C66.746 21.3695 67.3476 21.6241 67.7812 22.1273C68.2124 22.6351 68.4374 23.3898 68.4374 24.3726C68.4374 25.3663 68.2265 26.1304 67.8203 26.6421C67.4218 27.1499 66.8125 27.4077 66.0078 27.4077M66.1171 19.5874C64.6015 19.5874 63.3984 20.028 62.5468 20.9015C61.6898 21.7765 61.2578 22.9835 61.2578 24.4952C61.2578 25.9327 61.6796 27.0843 62.5101 27.9249C63.3476 28.7687 64.4835 29.2062 65.889 29.2062C67.3578 29.2062 68.5296 28.753 69.389 27.8702C70.2437 26.9843 70.6781 25.7859 70.6781 24.3116C70.6781 22.853 70.2718 21.689 69.475 20.8585C68.6703 20.0187 67.5406 19.5952 66.1156 19.5952M57.9609 21.3984V19.8046H55.8046V28.9687H57.9609V24.2812C57.9609 23.4843 58.1406 22.828 58.4976 22.332C58.8492 21.8382 59.3179 21.5976 59.8882 21.5976C60.0835 21.5976 60.3023 21.6288 60.5429 21.6913C60.7773 21.7538 60.946 21.8163 61.0429 21.8945L61.1367 21.957V19.7851L61.1023 19.7695C60.8992 19.6788 60.6179 19.6351 60.2585 19.6351C59.7195 19.6351 59.2351 19.8101 58.8195 20.1507C58.4523 20.4538 58.189 20.8663 57.9874 21.382H57.9484L57.9679 21.3976L57.9609 21.3984ZM51.9296 19.5859C50.9375 19.5859 50.0546 19.7929 49.3046 20.2109C48.5484 20.6327 47.9687 21.2265 47.5703 21.9921C47.1796 22.7499 46.9765 23.6366 46.9765 24.6249C46.9765 25.4921 47.1734 26.2843 47.5546 26.9859C47.9406 27.689 48.4843 28.2359 49.1718 28.6187C49.8546 28.996 50.6484 29.189 51.5265 29.189C52.5515 29.189 53.4249 28.9859 54.1281 28.5796L54.1593 28.564V26.5859L54.0656 26.6507C53.7476 26.8851 53.3937 27.0687 53.0109 27.2015C52.6296 27.3343 52.2828 27.4015 51.9796 27.4015C51.1312 27.4015 50.4531 27.1359 49.9593 26.6163C49.4593 26.0851 49.2093 25.3507 49.2093 24.4288C49.2093 23.4913 49.4749 22.7413 49.9874 22.1945C50.5031 21.632 51.1812 21.3507 52.0109 21.3507C52.714 21.3507 53.407 21.5929 54.0601 22.0616L54.1539 22.1241V20.046L54.1281 20.0304C53.882 19.8898 53.5476 19.7804 53.1281 19.6913C52.7171 19.6054 52.3125 19.5632 51.9265 19.5632M45.4968 19.782H43.3437V28.9538H45.5V19.782H45.4968ZM44.4343 15.8835C44.0796 15.8835 43.7703 16.0038 43.5156 16.2429C43.2609 16.4835 43.1312 16.7851 43.1312 17.1413C43.1312 17.4929 43.2617 17.7898 43.514 18.0241C43.764 18.2585 44.0765 18.3741 44.4359 18.3741C44.7953 18.3741 45.1078 18.257 45.3617 18.0226C45.6179 17.7882 45.7476 17.4913 45.7476 17.1398C45.7476 16.796 45.6226 16.4991 45.3726 16.2491C45.1226 16.0148 44.8101 15.8898 44.4351 15.8898M39.0523 19.1163V28.9601H41.2554V16.1796H38.2085L34.3468 25.678L30.589 16.178H27.4218V28.9687H29.4921V19.1288H29.5625L33.5312 28.971H35.0898L38.996 19.1296H39.0703L39.0585 19.1249L39.0523 19.1163ZM10.8726 23.0929H21.0132V33.2421H10.857L10.871 23.0999L10.8726 23.0929ZM-0.328174 23.0991H9.81089V33.2421H-0.331299L-0.328174 23.0991ZM10.8734 11.8984H21.014V22.039H10.8671L10.8734 11.8952V11.8984ZM-0.328174 11.8968H9.81089V22.039H-0.331299L-0.328174 11.8952V11.8968Z" fill="#E0CFFC"/>
  </g>
  <defs>
    <clipPath id="clip0_6_4163">
      <rect width="100" height="45" fill="white" transform="translate(0 0.0032959)"/>
    </clipPath>
  </defs>
</svg>