<svg width="100" height="46" viewBox="0 0 100 46" fill="none" xmlns="http://www.w3.org/2000/svg">
<g clip-path="url(#clip0_4453_814)">
<path d="M99.6562 22.0531V20.2937H97.4718V17.5593L97.3984 17.5828L95.3476 18.2078H95.3085V20.2781H92.071V19.1218C92.071 18.5906 92.196 18.1765 92.4304 17.9031C92.6648 17.6296 93.0085 17.4929 93.4304 17.4929C93.7429 17.4929 94.071 17.571 94.3835 17.7117L94.4617 17.7429V15.8984L94.4304 15.8828C94.1335 15.7773 93.7273 15.7226 93.2273 15.7226C92.5945 15.7226 92.0164 15.8632 91.5085 16.1398C91.0007 16.4054 90.6023 16.8039 90.3289 17.3039C90.0476 17.8039 89.907 18.382 89.907 19.0148V20.2804H88.3913V22.0382H89.9148V29.4445H92.0945V22.0382H95.3343V26.7414C95.3343 28.6789 96.2453 29.6632 98.0531 29.6632C98.35 29.6632 98.6625 29.6257 98.975 29.5617C99.2992 29.4914 99.5218 29.421 99.6468 29.3507L99.6781 29.3351V27.5617L99.5898 27.621C99.4726 27.6992 99.3242 27.7671 99.1523 27.814C98.9804 27.8609 98.832 27.8921 98.721 27.8921C98.2992 27.8921 97.9867 27.7828 97.7945 27.5585C97.596 27.3359 97.4976 26.9414 97.4976 26.3867V22.0585H99.6695L99.6648 22.0476L99.6562 22.0531ZM83.4921 27.8968C82.7007 27.8968 82.0757 27.6335 81.6328 27.1156C81.1929 26.596 80.9687 25.8546 80.9687 24.9125C80.9687 23.9406 81.1929 23.1781 81.6351 22.65C82.0757 22.125 82.6945 21.8578 83.4757 21.8578C84.2335 21.8578 84.8273 22.1125 85.2648 22.6156C85.7023 23.1218 85.921 23.8765 85.921 24.8593C85.921 25.8546 85.7179 26.6195 85.3117 27.1304C84.9054 27.6382 84.296 27.896 83.4992 27.896M83.5929 20.0734C82.0851 20.0734 80.8835 20.5156 80.0273 21.389C79.1757 22.264 78.7398 23.4718 78.7398 24.9828C78.7398 26.4203 79.1617 27.5726 79.9999 28.4125C80.8359 29.2562 81.9742 29.6937 83.3804 29.6937C84.8429 29.6937 86.021 29.2406 86.8742 28.3617C87.7335 27.4773 88.1601 26.2789 88.1601 24.8046C88.1601 23.3468 87.7539 22.1828 86.9492 21.3515C86.1445 20.5125 85.0164 20.089 83.5898 20.089M75.2148 20.089C74.1835 20.089 73.3367 20.3515 72.6835 20.8703C72.0335 21.3921 71.6992 22.0734 71.6992 22.9015C71.6992 23.3343 71.7726 23.714 71.9148 24.0421C72.0554 24.3656 72.2742 24.6515 72.5664 24.8921C72.8554 25.1265 73.3007 25.3765 73.8945 25.6328C74.3945 25.8359 74.7617 26.0078 74.9992 26.1484C75.2335 26.2789 75.3992 26.414 75.4835 26.5445C75.5773 26.6695 75.6242 26.8492 75.6242 27.0601C75.6242 27.6804 75.1648 27.9789 74.2179 27.9789C73.8648 27.9789 73.4632 27.9054 73.0242 27.7601C72.5812 27.6164 72.1703 27.4085 71.7999 27.1414L71.7062 27.0789V29.1726L71.7374 29.1882C72.0499 29.3289 72.4351 29.4539 72.8937 29.5476C73.3507 29.6492 73.7687 29.696 74.1281 29.696C75.2453 29.696 76.1437 29.4304 76.7999 28.9117C77.4562 28.3867 77.7921 27.6851 77.7921 26.8304C77.7921 26.2132 77.6124 25.682 77.257 25.2562C76.9054 24.8296 76.296 24.4406 75.4421 24.0968C74.7679 23.8234 74.3328 23.5968 74.1453 23.425C73.9734 23.2562 73.8929 23.0187 73.8929 22.7187C73.8929 22.4531 74.0023 22.239 74.225 22.0671C74.4484 21.8914 74.7609 21.8039 75.1515 21.8039C75.5148 21.8039 75.8859 21.8585 76.2609 21.9718C76.6281 22.0875 76.9523 22.2375 77.2218 22.4218L77.3132 22.4843V20.4843L77.282 20.4687C77.0281 20.3593 76.6984 20.2679 76.2976 20.1953C75.8992 20.1195 75.5375 20.0859 75.2234 20.0859M66.0046 27.9062C65.2156 27.9062 64.5906 27.6453 64.1531 27.125C63.7078 26.6093 63.4851 25.8671 63.4851 24.9218C63.4851 23.9531 63.7085 23.1875 64.1523 22.6617C64.5898 22.1367 65.2101 21.8695 65.9882 21.8695C66.746 21.8695 67.3476 22.1242 67.7812 22.6273C68.2124 23.1351 68.4374 23.8898 68.4374 24.8726C68.4374 25.8664 68.2265 26.6304 67.8203 27.1421C67.4218 27.65 66.8125 27.9078 66.0078 27.9078M66.1171 20.0875C64.6015 20.0875 63.3984 20.5281 62.5468 21.4015C61.6898 22.2765 61.2578 23.4835 61.2578 24.9953C61.2578 26.4328 61.6796 27.5843 62.5101 28.425C63.3476 29.2687 64.4835 29.7062 65.889 29.7062C67.3578 29.7062 68.5296 29.2531 69.389 28.3703C70.2437 27.4843 70.6781 26.2859 70.6781 24.8117C70.6781 23.3531 70.2718 22.189 69.475 21.3585C68.6703 20.5187 67.5406 20.0953 66.1156 20.0953M57.9609 21.8984V20.3046H55.8046V29.4687H57.9609V24.7812C57.9609 23.9843 58.1406 23.3281 58.4976 22.832C58.8492 22.3382 59.3179 22.0976 59.8882 22.0976C60.0835 22.0976 60.3023 22.1289 60.5429 22.1914C60.7773 22.2539 60.946 22.3164 61.0429 22.3945L61.1367 22.457V20.2851L61.1023 20.2695C60.8992 20.1789 60.6179 20.1351 60.2585 20.1351C59.7195 20.1351 59.2351 20.3101 58.8195 20.6507C58.4523 20.9539 58.189 21.3664 57.9874 21.882H57.9484L57.9679 21.8976L57.9609 21.8984ZM51.9296 20.0859C50.9375 20.0859 50.0546 20.2929 49.3046 20.7109C48.5484 21.1328 47.9687 21.7265 47.5703 22.4921C47.1796 23.25 46.9765 24.1367 46.9765 25.125C46.9765 25.9921 47.1734 26.7843 47.5546 27.4859C47.9406 28.189 48.4843 28.7359 49.1718 29.1187C49.8546 29.496 50.6484 29.689 51.5265 29.689C52.5515 29.689 53.4249 29.4859 54.1281 29.0796L54.1593 29.064V27.0859L54.0656 27.1507C53.7476 27.3851 53.3937 27.5687 53.0109 27.7015C52.6296 27.8343 52.2828 27.9015 51.9796 27.9015C51.1312 27.9015 50.4531 27.6359 49.9593 27.1164C49.4593 26.5851 49.2093 25.8507 49.2093 24.9289C49.2093 23.9914 49.4749 23.2414 49.9874 22.6945C50.5031 22.132 51.1812 21.8507 52.0109 21.8507C52.714 21.8507 53.407 22.0929 54.0601 22.5617L54.1539 22.6242V20.546L54.1281 20.5304C53.882 20.3898 53.5476 20.2804 53.1281 20.1914C52.7171 20.1054 52.3125 20.0632 51.9265 20.0632M45.4968 20.282H43.3437V29.4539H45.5V20.282H45.4968ZM44.4343 16.3835C44.0796 16.3835 43.7703 16.5039 43.5156 16.7429C43.2609 16.9835 43.1312 17.2851 43.1312 17.6414C43.1312 17.9929 43.2617 18.2898 43.514 18.5242C43.764 18.7585 44.0765 18.8742 44.4359 18.8742C44.7953 18.8742 45.1078 18.757 45.3617 18.5226C45.6179 18.2882 45.7476 17.9914 45.7476 17.6398C45.7476 17.296 45.6226 16.9992 45.3726 16.7492C45.1226 16.5148 44.8101 16.3898 44.4351 16.3898M39.0523 19.6164V29.4601H41.2554V16.6796H38.2085L34.3468 26.1781L30.589 16.6781H27.4218V29.4687H29.4921V19.6289H29.5625L33.5312 29.471H35.0898L38.996 19.6296H39.0703L39.0585 19.625L39.0523 19.6164ZM10.8726 23.5929H21.0132V33.7421H10.857L10.871 23.6L10.8726 23.5929ZM-0.328174 23.5992H9.81089V33.7421H-0.331299L-0.328174 23.5992ZM10.8734 12.3984H21.014V22.539H10.8671L10.8734 12.3953V12.3984ZM-0.328174 12.3968H9.81089V22.539H-0.331299L-0.328174 12.3953V12.3968Z" fill="#520DC2"/>
</g>
<defs>
<clipPath id="clip0_4453_814">
<rect width="100" height="45" fill="white" transform="translate(0 0.503296)"/>
</clipPath>
</defs>
</svg>
