<svg width="101" height="45" viewBox="0 0 101 45" fill="none" xmlns="http://www.w3.org/2000/svg">
<g clip-path="url(#clip0_4453_471)">
<path d="M66.7394 9.0033V28.5805C69.141 28.6928 71.5365 28.8286 73.9251 28.9889V33.1395C70.1491 32.8864 66.3572 32.6932 62.5496 32.5615V9.0033H66.7394ZM100.034 9.00562L94.5779 21.7234L100.032 35.8759L100.026 35.8786C98.4374 35.6507 96.8465 35.4355 95.2509 35.2293L92.1879 27.2861L89.0957 34.4919C87.6303 34.3292 86.1629 34.1753 84.6921 34.031L90.0108 21.6384L85.1399 9.00562H89.6723L92.3995 16.0751L95.432 9.00562H100.034ZM48.1701 32.3558L48.1699 9.00554H59.8657V13.1935H52.3598V18.6212H58.039V22.7718H52.3598V32.3548L48.1701 32.3558ZM32.5253 13.1938L32.5252 9.00532H45.4841V13.1935H41.0994V32.4694C39.701 32.5062 38.304 32.5498 36.9099 32.6027V13.1938H32.5253ZM18.2021 33.8094V9.00602H29.8395V13.1939H22.3912V18.8668C24.1024 18.8448 26.5354 18.8198 28.049 18.8235V22.9744C26.1543 22.9508 24.0156 23.0006 22.3912 23.0169V29.3008C24.8668 29.105 27.3497 28.9337 29.8395 28.7891V32.9401C25.9427 33.1658 22.0634 33.4566 18.2021 33.8094ZM9.98317 24.214L9.9829 9.00534H14.1727V34.2006C12.6411 34.359 11.1124 34.5276 9.5863 34.7056L4.73474 20.6915V35.3058C3.33546 35.4891 1.93902 35.6801 0.545166 35.8796V9.00562H4.52688L9.98317 24.214ZM77.3816 33.3899V9.00564H81.5715V33.7378C80.1767 33.6129 78.7805 33.4975 77.3816 33.3899Z" fill="#520DC2"/>
</g>
<defs>
<clipPath id="clip0_4453_471">
<rect width="100" height="45" fill="white" transform="translate(0.666748 0.0032959)"/>
</clipPath>
</defs>
</svg>
