<svg width="101" height="45" viewBox="0 0 101 45" fill="none" xmlns="http://www.w3.org/2000/svg">
<g clip-path="url(#clip0_4453_544)">
<path d="M9.49712 17.3388H10.9978V21.5821H14.804V17.3388L15.935 17.3301V27.764H14.804V22.1589H10.9978V27.7643H9.49712V17.3388ZM26.0422 17.3601H27.3098L32.6425 24.137V17.3601H33.4552V27.9209L26.8606 19.4141V27.7854L26.0214 27.7856L26.0422 17.3601ZM34.8679 17.3601H38.6707L39.214 18.5674C39.214 18.5674 38.5768 17.9336 37.383 17.9336H36.4613V21.6056H38.0067C38.792 21.6056 38.9085 21.5288 39.214 21.2233V22.7723C39.214 22.7723 38.8719 22.2491 38.0067 22.2491H36.4613V27.0768H38.6104C40.6929 27.0768 41.7559 26.2116 41.7559 26.2116L40.9913 27.7811L34.8486 27.7822L34.8679 17.3601ZM87.7314 17.3601H91.9504L92.4936 18.5674C92.4936 18.5674 91.8976 17.9332 90.5743 17.9332H89.1859V21.6056H90.8704C91.4831 21.6056 91.6725 21.5503 91.908 21.3155V22.5505C91.908 22.5505 91.7356 22.1891 90.8704 22.1891H89.1876V27.0788H90.2057C92.0409 27.0788 92.7505 26.5264 92.7505 26.5264L91.8209 27.7829L87.7141 27.7841L87.7314 17.3601ZM17.3647 17.3527H21.5837L22.127 18.56C22.127 18.56 21.5309 17.9258 20.2076 17.9258H18.8193V21.5984H20.5037C21.1164 21.5984 21.3059 21.5431 21.5413 21.3083V22.5433C21.5413 22.5433 21.3689 22.1819 20.5037 22.1819H18.8193V27.0718H19.8374C21.6726 27.0718 22.3822 26.5193 22.3822 26.5193L21.4526 27.7759L17.3458 27.777L17.3647 17.3527ZM8.01655 17.3601H1.09631L0.525879 18.6507C0.525879 18.6507 1.15164 18.0166 2.54132 18.0166L3.78882 18.0159L3.7915 27.7621L5.27441 27.7634L5.27709 18.0166H6.57405C7.96357 18.0166 8.5895 18.6507 8.5895 18.6507L8.01655 17.3601ZM39.6828 17.3601H41.2898L44.755 25.0034L45.4817 23.3964L42.8267 17.3601H44.3638L46.292 21.4403L48.1364 17.3601H48.919L46.7251 22.5441L47.843 25.0034L51.2104 17.3601H52.1465L47.5077 27.8677L45.9008 24.4584L44.3358 27.8817L39.6828 17.3601ZM66.6354 17.0033C70.2242 17.0033 72.4048 19.533 72.4048 22.3446C72.4048 25.974 70.4351 28.2561 66.7199 28.2561C63.0048 28.2561 60.7876 25.4482 60.7876 22.6613C60.7876 19.5157 63.1312 17.0033 66.6356 17.0033H66.6354ZM62.3287 22.4292C62.3287 24.8694 63.7026 27.5383 66.8254 27.5383C69.7106 27.5383 70.858 25.1732 70.858 22.4923C70.858 20.342 69.4012 17.6156 66.5719 17.6156C64.5896 17.6156 62.3287 19.1799 62.3287 22.4292ZM73.6417 17.3601H76.0869C77.3733 17.3601 78.4482 18.1059 78.4482 19.484C78.4482 21.1105 77.2516 21.5307 76.4362 21.7896C77.9181 22.0367 78.4623 22.7466 78.4623 24.7378C78.4623 26.7247 78.9675 27.4625 79.4231 27.4625C79.7739 27.4625 80.0477 27.2311 80.1454 27.0718L80.3488 27.211C80.2891 27.3044 79.8793 27.9516 78.9236 27.9516C77.9734 27.9516 77.2469 27.0713 77.2469 25.0034C77.2469 22.0132 76.4387 21.9572 75.7936 21.9572V21.7337C75.8131 21.7292 77.1769 21.4373 77.1769 19.7635C77.1769 18.181 76.2267 17.933 75.8355 17.933H75.1368V27.7839H73.6224L73.6417 17.3601ZM93.4334 17.3601H95.8788C97.1654 17.3601 98.2402 18.1059 98.2402 19.484C98.2402 21.1105 97.0433 21.5307 96.2281 21.7896C97.71 22.0367 98.2541 22.7466 98.2541 24.7378C98.2541 26.7247 98.7595 27.4625 99.2149 27.4625C99.5656 27.4625 99.8393 27.2311 99.937 27.0718L100.14 27.211C100.081 27.3044 99.6694 27.9516 98.715 27.9516C97.765 27.9516 97.0383 27.0713 97.0383 25.0034C97.0383 22.0132 96.2301 21.9572 95.5852 21.9572V21.7337C95.6047 21.7292 96.9685 21.4373 96.9685 19.7635C96.9685 18.181 96.0183 17.933 95.6271 17.933H94.9284V27.7839H93.414L93.4334 17.3601ZM85.2613 24.7378C85.2613 26.7247 85.7665 27.4625 86.2221 27.4625C86.5742 27.4625 86.8465 27.2311 86.944 27.0718L87.1479 27.211C87.0878 27.3042 86.6763 27.9514 85.7226 27.9514C84.7722 27.9514 84.0459 27.0711 84.0459 25.0032V24.584C84.0459 23.3513 83.9855 22.3898 83.7717 21.76C83.6064 21.273 83.0071 20.9091 82.7498 20.9091L82.4283 20.9093V27.7839H80.9139L80.9333 17.3601H82.4283V20.4342L85.1671 17.3601H86.1452L83.2687 20.589C84.7506 20.836 85.2615 21.9408 85.2615 24.3328L85.2613 24.7378ZM58.6404 27.7841V22.4029L61.5445 17.3603H60.6059L57.8483 22.1472L55.0907 17.3601H54.1523L57.0564 22.4027V27.7839L58.6404 27.7841Z" fill="#520DC2"/>
</g>
<defs>
<clipPath id="clip0_4453_544">
<rect width="100" height="45" fill="white" transform="translate(0.333252 0.0032959)"/>
</clipPath>
</defs>
</svg>
